<svg xmlns="http://www.w3.org/2000/svg" viewBox="0 0 640 420" width="640" height="420" fill="none">
  <rect x="36" y="28" width="360" height="364" rx="24" fill="#FFFFFF" stroke="#E3E0F1" stroke-width="1.5"/>
  <rect x="60" y="52" width="92" height="22" rx="11" fill="#E4DFF8"/>
  <rect x="72" y="59" width="68" height="8" rx="4" fill="#6D5BD0"/>
  <rect x="60" y="92" width="280" height="12" rx="6" fill="#1A1533" opacity="0.88"/>
  <rect x="60" y="114" width="240" height="12" rx="6" fill="#1A1533" opacity="0.55"/>
  <rect x="60" y="136" width="190" height="12" rx="6" fill="#1A1533" opacity="0.35"/>
  <rect x="60" y="176" width="312" height="44" rx="14" fill="#F3F2FB" stroke="#6D5BD0" stroke-width="1.5"/>
  <circle cx="84" cy="198" r="10" fill="#6D5BD0"/>
  <rect x="104" y="193" width="140" height="10" rx="5" fill="#1A1533" opacity="0.8"/>
  <rect x="60" y="232" width="312" height="44" rx="14" fill="#FFFFFF" stroke="#E3E0F1" stroke-width="1.5"/>
  <circle cx="84" cy="254" r="10" fill="none" stroke="#C9C3E6" stroke-width="1.5"/>
  <rect x="104" y="249" width="120" height="10" rx="5" fill="#1A1533" opacity="0.45"/>
  <rect x="60" y="288" width="312" height="44" rx="14" fill="#FFFFFF" stroke="#E3E0F1" stroke-width="1.5"/>
  <circle cx="84" cy="310" r="10" fill="none" stroke="#C9C3E6" stroke-width="1.5"/>
  <rect x="104" y="305" width="160" height="10" rx="5" fill="#1A1533" opacity="0.45"/>
  <rect x="60" y="348" width="120" height="22" rx="11" fill="#6D5BD0"/>
  <rect x="78" y="355" width="84" height="8" rx="4" fill="#FFFFFF"/>
  <rect x="420" y="28" width="184" height="168" rx="24" fill="#FFFFFF" stroke="#E3E0F1" stroke-width="1.5"/>
  <rect x="444" y="52" width="88" height="10" rx="5" fill="#1A1533" opacity="0.75"/>
  <rect x="444" y="80" width="136" height="10" rx="5" fill="#EEEBF8"/>
  <rect x="444" y="80" width="96" height="10" rx="5" fill="#6D5BD0"/>
  <rect x="444" y="104" width="136" height="10" rx="5" fill="#EEEBF8"/>
  <rect x="444" y="104" width="54" height="10" rx="5" fill="#BFB5EE"/>
  <rect x="444" y="128" width="136" height="10" rx="5" fill="#EEEBF8"/>
  <rect x="444" y="128" width="72" height="10" rx="5" fill="#E4DFF8"/>
  <rect x="444" y="156" width="72" height="8" rx="4" fill="#C9C3E6"/>
  <rect x="420" y="216" width="184" height="176" rx="24" fill="#FFFFFF" stroke="#E3E0F1" stroke-width="1.5"/>
  <circle cx="512" cy="292" r="46" fill="none" stroke="#EEEBF8" stroke-width="12"/>
  <circle cx="512" cy="292" r="46" fill="none" stroke="#6D5BD0" stroke-width="12" stroke-linecap="round" stroke-dasharray="180 289" transform="rotate(-90 512 292)"/>
  <rect x="490" y="286" width="44" height="12" rx="6" fill="#1A1533" opacity="0.85"/>
  <rect x="468" y="352" width="88" height="8" rx="4" fill="#C9C3E6"/>
</svg>
