<svg xmlns="http://www.w3.org/2000/svg" viewBox="0 0 640 420" width="640" height="420" fill="none" xmlns:c2pa="http://c2pa.org/manifest"><metadata><c2pa:manifest>AAAWgmp1bWIAAAAeanVtZGMycGEAEQAQgAAAqgA4m3EDYzJwYQAAABZcanVtYgAAAEdqdW1kYzJtYQARABCAAACqADibcQN1cm46YzJwYTpiM2Q1ODU3ZS1lMGE3LTQzZGQtODMxNS0yNGQ2MWYxZDgxMTUAAAADl2p1bWIAAAApanVtZGMyYXMAEQAQgAAAqgA4m3EDYzJwYS5hc3NlcnRpb25zAAAAALxqdW1iAAAARGp1bWRjYm9yABEAEIAAAKoAOJtxE2MycGEuaW5ncmVkaWVudC52MwAAAAAYYzJzaC50Y+Nn0c5HxkKy6YbH5ekAAABwY2JvcqNpZGM6Zm9ybWF0bWltYWdlL3N2Zyt4bWxqaW5zdGFuY2VJRHgseG1wOmlpZDo1ZTlhOWJlZS01Yjc2LTQ4ZGMtYjk0My0yMTA2ODdkNDBjMzlscmVsYXRpb25zaGlwaHBhcmVudE9mAAAB4mp1bWIAAABBanVtZGNib3IAEQAQgAAAqgA4m3ETYzJwYS5hY3Rpb25zLnYyAAAAABhjMnNoam21qApWgp3T7i+/SCRm0AAAAZljYm9yomdhY3Rpb25zgqJmYWN0aW9ua2MycGEub3BlbmVkanBhcmFtZXRlcnOha2luZ3JlZGllbnRzgaJjdXJseC1zZWxmI2p1bWJmPWMycGEuYXNzZXJ0aW9ucy9jMnBhLmluZ3JlZGllbnQudjNkaGFzaFggWOeVciGPeZ7FUHk0s8T4vg9xOGaw/ujTcsMzG+thu5GkZmFjdGlvbngdY29tLmFudGhyb3BpYy5jbGF1ZGUucHJvdmlkZWRqcGFyYW1ldGVyc6F4H2NvbS5hbnRocm9waWMub3JpZ2luLWNvbmZpZGVuY2VndW5rbm93bmtkZXNjcmlwdGlvbnhmQ2xhdWRlIHByb3ZpZGVkIHRoaXMgZmlsZSBhdCB0aGUgcmVxdWVzdCBvZiBhIHVzZXIgYW5kIG1heSBoYXZlIGNyZWF0ZWQgb3IgbW9kaWZpZWQgdGhlIGZpbGUgY29udGVudHMubXNvZnR3YXJlQWdlbnShZG5hbWVmQ2xhdWRlcmFsbEFjdGlvbnNJbmNsdWRlZPUAAADIanVtYgAAAEBqdW1kY2JvcgARABCAAACqADibcRNjMnBhLmhhc2guZGF0YQAAAAAYYzJzaHzCzg6FEHsNticuKy37dmsAAACAY2JvcqVjYWxnZnNoYTI1NmNwYWRNAAAAAAAAAAAAAAAAAGRoYXNoWCC24INPbebfizqm/fmkvqPCDPSAYfU4/AlXz9m0jT43/WRuYW1lbmp1bWJmIG1hbmlmZXN0amV4Y2x1c2lvbnOBomVzdGFydBiiZmxlbmd0aBkeBAAAAj5qdW1iAAAAJ2p1bWRjMmNsABEAEIAAAKoAOJtxA2MycGEuY2xhaW0udjIAAAACD2Nib3KlY2FsZ2ZzaGEyNTZpc2lnbmF0dXJleE1zZWxmI2p1bWJmPS9jMnBhL3VybjpjMnBhOmIzZDU4NTdlLWUwYTctNDNkZC04MzE1LTI0ZDYxZjFkODExNS9jMnBhLnNpZ25hdHVyZWppbnN0YW5jZUlEeCx4bXA6aWlkOjY3OTMyNTI2LWU4MjQtNDNmOS05Mzg3LTQxYWIyZWVhYjMwMHJjcmVhdGVkX2Fzc2VydGlvbnODomN1cmx4LXNlbGYjanVtYmY9YzJwYS5hc3NlcnRpb25zL2MycGEuaW5ncmVkaWVudC52M2RoYXNoWCBY55VyIY95nsVQeTSzxPi+D3E4ZrD+6NNywzMb62G7kaJjdXJseCpzZWxmI2p1bWJmPWMycGEuYXNzZXJ0aW9ucy9jMnBhLmFjdGlvbnMudjJkaGFzaFggyKch+6vumscK0/hgtJVw4Y6hbg3W+hpTnHQMJ3BycfWiY3VybHgpc2VsZiNqdW1iZj1jMnBhLmFzc2VydGlvbnMvYzJwYS5oYXNoLmRhdGFkaGFzaFggkb5O3O/RddnzhSBev7shWqpPJGkwtZazP8Gz8BxqvQt0Y2xhaW1fZ2VuZXJhdG9yX2luZm+jZG5hbWVvQW50aHJvcGljIEZpbGVzZ3ZlcnNpb25lMS4wLjBrc3BlY1ZlcnNpb25lMi40LjAAABA4anVtYgAAAChqdW1kYzJjcwARABCAAACqADibcQNjMnBhLnNpZ25hdHVyZQAAABAIY2JvctKEWQISogEmGCFZAgowggIGMIIBjaADAgECAhRA5aAK7sI50L64g/oGQgU9Z1UTADAKBggqhkjOPQQDAzBJMRcwFQYDVQQKEw5BbnRocm9waWMsIFBCQzEuMCwGA1UEAxMlQW50aHJvcGljIENvbnRlbnQgQ3JlZGVudGlhbHMgUm9vdCBDQTAeFw0yNjA4MDcxODQzNTZaFw0yODA4MDYxOTQzNTZaMEQxFzAVBgNVBAoTDkFudGhyb3BpYywgUEJDMSkwJwYDVQQDEyBBbnRocm9waWMgQ2xhdWRlIENvbnRlbnQgU2lnbmluZzBZMBMGByqGSM49AgEGCCqGSM49AwEHA0IABJh6CmvLUBgFFNU0vUKlOVtE6djd17L5SuwX0LemFisBM3dkd/3cyjxFA3Qo5S46fX0/ihY0VZ7mfb9KF703t5OjWDBWMA4GA1UdDwEB/wQEAwIHgDAVBgNVHSUEDjAMBgorBgEEAYPoXgIBMAwGA1UdEwEB/wQCMAAwHwYDVR0jBBgwFoAUzlHiBIFOZFsj+OPEz5o+nMHXXMIwCgYIKoZIzj0EAwMDZwAwZAIwMXMdFJ4BetLLVY7ORuE9noqbbAZOZn/aArXyTwFAZfKrPzxF2vPoJNf1+UCdg1XGAjBwX1zd9WGqYkqmL5SFqw1QySjr1zJfpJM9+1rdDwSPLMOPOjKuiXjoU/pUUeG9RwmhY3BhZFkNngAAAAAAAAAAAAAAAAAAAAAAAAAAAAAAAAAAAAAAAAAAAAAAAAAAAAAAAAAAAAAAAAAAAAAAAAAAAAAAAAAAAAAAAAAAAAAAAAAAAAAAAAAAAAAAAAAAAAAAAAAAAAAAAAAAAAAAAAAAAAAAAAAAAAAAAAAAAAAAAAAAAAAAAAAAAAAAAAAAAAAAAAAAAAAAAAAAAAAAAAAAAAAAAAAAAAAAAAAAAAAAAAAAAAAAAAAAAAAAAAAAAAAAAAAAAAAAAAAAAAAAAAAAAAAAAAAAAAAAAAAAAAAAAAAAAAAAAAAAAAAAAAAAAAAAAAAAAAAAAAAAAAAAAAAAAAAAAAAAAAAAAAAAAAAAAAAAAAAAAAAAAAAAAAAAAAAAAAAAAAAAAAAAAAAAAAAAAAAAAAAAAAAAAAAAAAAAAAAAAAAAAAAAAAAAAAAAAAAAAAAAAAAAAAAAAAAAAAAAAAAAAAAAAAAAAAAAAAAAAAAAAAAAAAAAAAAAAAAAAAAAAAAAAAAAAAAAAAAAAAAAAAAAAAAAAAAAAAAAAAAAAAAAAAAAAAAAAAAAAAAAAAAAAAAAAAAAAAAAAAAAAAAAAAAAAAAAAAAAAAAAAAAAAAAAAAAAAAAAAAAAAAAAAAAAAAAAAAAAAAAAAAAAAAAAAAAAAAAAAAAAAAAAAAAAAAAAAAAAAAAAAAAAAAAAAAAAAAAAAAAAAAAAAAAAAAAAAAAAAAAAAAAAAAAAAAAAAAAAAAAAAAAAAAAAAAAAAAAAAAAAAAAAAAAAAAAAAAAAAAAAAAAAAAAAAAAAAAAAAAAAAAAAAAAAAAAAAAAAAAAAAAAAAAAAAAAAAAAAAAAAAAAAAAAAAAAAAAAAAAAAAAAAAAAAAAAAAAAAAAAAAAAAAAAAAAAAAAAAAAAAAAAAAAAAAAAAAAAAAAAAAAAAAAAAAAAAAAAAAAAAAAAAAAAAAAAAAAAAAAAAAAAAAAAAAAAAAAAAAAAAAAAAAAAAAAAAAAAAAAAAAAAAAAAAAAAAAAAAAAAAAAAAAAAAAAAAAAAAAAAAAAAAAAAAAAAAAAAAAAAAAAAAAAAAAAAAAAAAAAAAAAAAAAAAAAAAAAAAAAAAAAAAAAAAAAAAAAAAAAAAAAAAAAAAAAAAAAAAAAAAAAAAAAAAAAAAAAAAAAAAAAAAAAAAAAAAAAAAAAAAAAAAAAAAAAAAAAAAAAAAAAAAAAAAAAAAAAAAAAAAAAAAAAAAAAAAAAAAAAAAAAAAAAAAAAAAAAAAAAAAAAAAAAAAAAAAAAAAAAAAAAAAAAAAAAAAAAAAAAAAAAAAAAAAAAAAAAAAAAAAAAAAAAAAAAAAAAAAAAAAAAAAAAAAAAAAAAAAAAAAAAAAAAAAAAAAAAAAAAAAAAAAAAAAAAAAAAAAAAAAAAAAAAAAAAAAAAAAAAAAAAAAAAAAAAAAAAAAAAAAAAAAAAAAAAAAAAAAAAAAAAAAAAAAAAAAAAAAAAAAAAAAAAAAAAAAAAAAAAAAAAAAAAAAAAAAAAAAAAAAAAAAAAAAAAAAAAAAAAAAAAAAAAAAAAAAAAAAAAAAAAAAAAAAAAAAAAAAAAAAAAAAAAAAAAAAAAAAAAAAAAAAAAAAAAAAAAAAAAAAAAAAAAAAAAAAAAAAAAAAAAAAAAAAAAAAAAAAAAAAAAAAAAAAAAAAAAAAAAAAAAAAAAAAAAAAAAAAAAAAAAAAAAAAAAAAAAAAAAAAAAAAAAAAAAAAAAAAAAAAAAAAAAAAAAAAAAAAAAAAAAAAAAAAAAAAAAAAAAAAAAAAAAAAAAAAAAAAAAAAAAAAAAAAAAAAAAAAAAAAAAAAAAAAAAAAAAAAAAAAAAAAAAAAAAAAAAAAAAAAAAAAAAAAAAAAAAAAAAAAAAAAAAAAAAAAAAAAAAAAAAAAAAAAAAAAAAAAAAAAAAAAAAAAAAAAAAAAAAAAAAAAAAAAAAAAAAAAAAAAAAAAAAAAAAAAAAAAAAAAAAAAAAAAAAAAAAAAAAAAAAAAAAAAAAAAAAAAAAAAAAAAAAAAAAAAAAAAAAAAAAAAAAAAAAAAAAAAAAAAAAAAAAAAAAAAAAAAAAAAAAAAAAAAAAAAAAAAAAAAAAAAAAAAAAAAAAAAAAAAAAAAAAAAAAAAAAAAAAAAAAAAAAAAAAAAAAAAAAAAAAAAAAAAAAAAAAAAAAAAAAAAAAAAAAAAAAAAAAAAAAAAAAAAAAAAAAAAAAAAAAAAAAAAAAAAAAAAAAAAAAAAAAAAAAAAAAAAAAAAAAAAAAAAAAAAAAAAAAAAAAAAAAAAAAAAAAAAAAAAAAAAAAAAAAAAAAAAAAAAAAAAAAAAAAAAAAAAAAAAAAAAAAAAAAAAAAAAAAAAAAAAAAAAAAAAAAAAAAAAAAAAAAAAAAAAAAAAAAAAAAAAAAAAAAAAAAAAAAAAAAAAAAAAAAAAAAAAAAAAAAAAAAAAAAAAAAAAAAAAAAAAAAAAAAAAAAAAAAAAAAAAAAAAAAAAAAAAAAAAAAAAAAAAAAAAAAAAAAAAAAAAAAAAAAAAAAAAAAAAAAAAAAAAAAAAAAAAAAAAAAAAAAAAAAAAAAAAAAAAAAAAAAAAAAAAAAAAAAAAAAAAAAAAAAAAAAAAAAAAAAAAAAAAAAAAAAAAAAAAAAAAAAAAAAAAAAAAAAAAAAAAAAAAAAAAAAAAAAAAAAAAAAAAAAAAAAAAAAAAAAAAAAAAAAAAAAAAAAAAAAAAAAAAAAAAAAAAAAAAAAAAAAAAAAAAAAAAAAAAAAAAAAAAAAAAAAAAAAAAAAAAAAAAAAAAAAAAAAAAAAAAAAAAAAAAAAAAAAAAAAAAAAAAAAAAAAAAAAAAAAAAAAAAAAAAAAAAAAAAAAAAAAAAAAAAAAAAAAAAAAAAAAAAAAAAAAAAAAAAAAAAAAAAAAAAAAAAAAAAAAAAAAAAAAAAAAAAAAAAAAAAAAAAAAAAAAAAAAAAAAAAAAAAAAAAAAAAAAAAAAAAAAAAAAAAAAAAAAAAAAAAAAAAAAAAAAAAAAAAAAAAAAAAAAAAAAAAAAAAAAAAAAAAAAAAAAAAAAAAAAAAAAAAAAAAAAAAAAAAAAAAAAAAAAAAAAAAAAAAAAAAAAAAAAAAAAAAAAAAAAAAAAAAAAAAAAAAAAAAAAAAAAAAAAAAAAAAAAAAAAAAAAAAAAAAAAAAAAAAAAAAAAAAAAAAAAAAAAAAAAAAAAAAAAAAAAAAAAAAAAAAAAAAAAAAAAAAAAAAAAAAAAAAAAAAAAAAAAAAAAAAAAAAAAAAAAAAAAAAAAAAAAAAAAAAAAAAAAAAAAAAAAAAAAAAAAAAAAAAAAAAAAAAAAAAAAAAAAAAAAAAAAAAAAAAAAAAAAAAAAAAAAAAAAAAAAAAAAAAAAAAAAAAAAAAAAAAAAAAAAAAAAAAAAAAAAAAAAAAAAAAAAAAAAAAAAAAAAAAAAAAAAAAAAAAAAAAAAAAAAAAAAAAAAAAAAAAAAAAAAAAAAAAAAAAAAAAAAAAAAAAAAAAAAAAAAAAAAAAAAAAAAAAAAAAAAAAAAAAAAAAAAAAAAAAAAAAAAAAAAAAAAAAAAAAAAAAAAAAAAAAAAAAAAAAAAAAAAAAAAAAAAAAAAAAAAAAAAAAAAAAAAAAAAAAAAAAAAAAAAAAAAAAAAAAAAAAAAAAAAAAAAAAAAAAAAAAAAAAAAAAAAAAAAAAAAAAAAAAAAAAAAAAAAAAAAAAAAAAAAAAAAAAAAAAAAAAAAAAAAAAAAAAAAAAAAAAAAAAAAAAAAAAAAAAAAAAAAAAAAAAAAAAAAAAAAAAAAAAAAAAAAAAAAAAAAAAAAAAAAAAAAAAAAAAAAAAAAAAAAAAAAAAAAAAAAAAAAAAAAAAAAAAAAAAAAAAAAAAAAAAAAAAAAAAAAAAAAAAAAAAAAAAAAAAAAAAAAAAAAAAAAAAAAAAAAAAAAAAAAAAAAAAAAAAAAAAAAAAAAAAAAAAAAAAAAAAAAAAAAAAAAAAAAAAAAAAAAAAAAAAAAAAAAAAAAAAAAAAAAAAAAAAAAAAAAAAAAAAAAAAAAAAAAAAAAAAAAAAAAAAAAAAAAAAAAAAAAAAAAAAAAAAAAAAAAAAAAAAAAAAAAAAAAAAAAAAAAAAAAAAAAAAAAAAAAAAAAAAAAAAAAAAAAAAAAAAAAAAAAAAAAAAAAAAAAAAAAAAAAAAAAAAAAAAAAAAAAAAAAAAAAAAAAAAAAAAAAAAAAAAAAAAAAAAAAAAAAAAAAAAAAAAAAAAAAAAAAAAAAAAAAAAAAAAAAAAAAAAAAAAAAAAAAAAAAAAAAAAAAAAAAAAAAAAAAAAAAAAAAAAAAAAAAAAAAAAAAAAAAAAAAAAAAAAAAAAAAAAAAAAAAAAAAAAAAAAAAAAAAAAAAAAAAAAAAAAAAAAAAAAAAAAAAAAAAAAAAAAAAAAAAAAAAAAAAAAAAAAAAAAAAAAAAAAAAAAAAAAAAAAAAAAAAAAAAAAAAAAAAAAAAAAAAAAAAAAAAAAAAAAAAAAAAAAAAAAAAAAAAAAAAAAAAAAAAAAAAAAAAAAAAAAAAAAAAAAAAAAAAAAAAAAAAAAAAAAAAAAAAAAAAAAAAAAAAAAAAAAAAAAAAAAAAAAAAAAAAAAAAAAAAAAAAAAAAAAAAAAAAAAAPZYQFX7MOWEDYjtgbYQ7BclEa2vdrdKZwHGK85Q5XbN0Dd5bvSyef0mpMpw9prv+0U6zT9IvRxiRVmvh2pFfUCwsKo=</c2pa:manifest></metadata><defs><pattern id="dots" width="20" height="20" patternUnits="userSpaceOnUse"><circle cx="2" cy="2" r="1.2" fill="#D6D1EC"/></pattern></defs><g transform="rotate(-6 150 230)"><rect x="36" y="120" width="200" height="150" rx="18" fill="#FFFFFF" stroke="#E3E0F1" stroke-width="1.5"/><path d="M88 180L109.0 180Q114.0 180 114.0 175.0L114.0 175.0Q114.0 170 119.0 170L140 170" fill="none" stroke="#8E88B5" stroke-width="2" stroke-linecap="round" stroke-linejoin="round"/><path d="M132 165L140 170L132 175" fill="none" stroke="#8E88B5" stroke-width="2" stroke-linecap="round" stroke-linejoin="round"/><rect x="52" y="144" width="60" height="60" rx="13" fill="#FFFFFF" stroke="#CA8A04" stroke-width="1.8"/><rect x="66" y="158" width="34" height="5" rx="2.5" fill="#C9C3E6"/><rect x="66" y="172" width="30.0" height="9" rx="4.5" fill="#1A1533"/><circle cx="70" cy="188" r="4" fill="#CA8A04"/><rect x="80" y="185" width="21.599999999999998" height="6" rx="3.0" fill="#CA8A04" opacity="0.55"/><rect x="138" y="138" width="70" height="60" rx="13" fill="#FFFFFF" stroke="#6D5BD0" stroke-width="1.8"/><rect x="152" y="152" width="34" height="5" rx="2.5" fill="#C9C3E6"/><rect x="152" y="166" width="35.0" height="9" rx="4.5" fill="#1A1533"/><circle cx="156" cy="182" r="4" fill="#6D5BD0"/><rect x="166" y="179" width="25.2" height="6" rx="3.0" fill="#6D5BD0" opacity="0.55"/></g><g transform="rotate(7 200 300)"><rect x="120" y="230" width="200" height="150" rx="18" fill="#FFFFFF" stroke="#E3E0F1" stroke-width="1.5"/><rect x="136" y="252" width="70" height="60" rx="13" fill="#FFFFFF" stroke="#C2410C" stroke-width="1.8"/><rect x="150" y="266" width="34" height="5" rx="2.5" fill="#C9C3E6"/><rect x="150" y="280" width="35.0" height="9" rx="4.5" fill="#1A1533"/><circle cx="154" cy="296" r="4" fill="#C2410C"/><rect x="164" y="293" width="25.2" height="6" rx="3.0" fill="#C2410C" opacity="0.55"/><rect x="224" y="258" width="70" height="60" rx="13" fill="#FFFFFF" stroke="#6D5BD0" stroke-width="1.8"/><rect x="238" y="272" width="34" height="5" rx="2.5" fill="#C9C3E6"/><rect x="238" y="286" width="35.0" height="9" rx="4.5" fill="#1A1533"/><circle cx="242" cy="302" r="4" fill="#6D5BD0"/><rect x="252" y="299" width="25.2" height="6" rx="3.0" fill="#6D5BD0" opacity="0.55"/></g><rect x="70" y="36" width="220" height="168" rx="18" fill="#FFFFFF" stroke="#6D5BD0" stroke-width="2.2"/><rect x="71" y="37" width="218" height="166" rx="0" fill="#FBFAFE"/><rect x="71" y="37" width="218" height="166" rx="0" fill="url(#dots)"/><rect x="86" y="56" width="76" height="70" rx="13" fill="#FFFFFF" stroke="#6D5BD0" stroke-width="1.8"/><rect x="100" y="70" width="34" height="5" rx="2.5" fill="#C9C3E6"/><rect x="100" y="84" width="38.0" height="9" rx="4.5" fill="#1A1533"/><rect x="100" y="104" width="48" height="6" rx="3.0" fill="#E3E0F1"/><circle cx="104" cy="110" r="4" fill="#6D5BD0"/><rect x="114" y="107" width="27.36" height="6" rx="3.0" fill="#6D5BD0" opacity="0.55"/><rect x="180" y="52" width="84" height="70" rx="13" fill="#FFFFFF" stroke="#CA8A04" stroke-width="1.8"/><rect x="194" y="66" width="34" height="5" rx="2.5" fill="#C9C3E6"/><rect x="194" y="80" width="42.0" height="9" rx="4.5" fill="#1A1533"/><rect x="194" y="100" width="56" height="6" rx="3.0" fill="#E3E0F1"/><circle cx="198" cy="106" r="4" fill="#CA8A04"/><rect x="208" y="103" width="30.24" height="6" rx="3.0" fill="#CA8A04" opacity="0.55"/><rect x="112" y="128" width="76" height="64" rx="13" fill="#FFFFFF" stroke="#C2410C" stroke-width="1.8"/><rect x="126" y="142" width="34" height="5" rx="2.5" fill="#C9C3E6"/><rect x="126" y="156" width="38.0" height="9" rx="4.5" fill="#1A1533"/><circle cx="130" cy="176" r="4" fill="#C2410C"/><rect x="140" y="173" width="27.36" height="6" rx="3.0" fill="#C2410C" opacity="0.55"/><path d="M162 92L169.0 92Q171.0 92 171.0 90.0L171.0 90.0Q171.0 88 173.0 88L180 88" fill="none" stroke="#8E88B5" stroke-width="2" stroke-linecap="round" stroke-linejoin="round"/><path d="M172 83L180 88L172 93" fill="none" stroke="#8E88B5" stroke-width="2" stroke-linecap="round" stroke-linejoin="round"/><path d="M124 126L124 128" fill="none" stroke="#8E88B5" stroke-width="2" stroke-linecap="round" stroke-linejoin="round"/><path d="M119 120L124 128L129 120" fill="none" stroke="#8E88B5" stroke-width="2" stroke-linecap="round" stroke-linejoin="round"/><circle cx="282" cy="44" r="18" fill="#6D5BD0"/><path d="M274.44 44L279.48 49.292L289.56 38.708" fill="none" stroke="#FFFFFF" stroke-width="2.4" stroke-linecap="round" stroke-linejoin="round"/><rect x="344" y="40" width="272" height="340" rx="22" fill="#FFFFFF" stroke="#E3E0F1" stroke-width="1.5"/><rect x="364" y="60" width="70" height="8" rx="4.0" fill="#1A1533" opacity="0.85"/><rect x="480" y="56" width="120" height="22" rx="11" fill="#F3F2FB"/><rect x="492" y="64" width="96" height="6" rx="3.0" fill="#6D5BD0"/><rect x="364" y="110" width="70" height="6" rx="3.0" fill="#C9C3E6"/><rect x="364" y="126" width="150" height="8" rx="4.0" fill="#1A1533" opacity="0.8"/><path d="M364 150H600" fill="none" stroke="#EEEBF8" stroke-width="1.2" stroke-linecap="round" stroke-linejoin="round"/><rect x="364" y="170" width="70" height="6" rx="3.0" fill="#C9C3E6"/><rect x="364" y="186" width="120" height="8" rx="4.0" fill="#1A1533" opacity="0.8"/><path d="M364 210H600" fill="none" stroke="#EEEBF8" stroke-width="1.2" stroke-linecap="round" stroke-linejoin="round"/><rect x="364" y="230" width="70" height="6" rx="3.0" fill="#C9C3E6"/><rect x="364" y="246" width="160" height="8" rx="4.0" fill="#1A1533" opacity="0.8"/><path d="M364 270H600" fill="none" stroke="#EEEBF8" stroke-width="1.2" stroke-linecap="round" stroke-linejoin="round"/><circle cx="380" cy="326" r="17" fill="#241A5C"/><path d="M372 326l6 6 11-12" fill="none" stroke="#FFFFFF" stroke-width="2.6" stroke-linecap="round" stroke-linejoin="round"/><rect x="408" y="314" width="130" height="8" rx="4.0" fill="#1A1533" opacity="0.8"/><rect x="408" y="332" width="90" height="7" rx="3.5" fill="#C9C3E6"/><rect x="364" y="356" width="70" height="12" rx="6" fill="#EEEDF6"/><rect x="442" y="356" width="90" height="12" rx="6" fill="#F3F2FB"/></svg>