<svg xmlns="http://www.w3.org/2000/svg" viewBox="0 0 640 420" width="640" height="420" fill="none" xmlns:c2pa="http://c2pa.org/manifest"><metadata><c2pa:manifest>AAAWgmp1bWIAAAAeanVtZGMycGEAEQAQgAAAqgA4m3EDYzJwYQAAABZcanVtYgAAAEdqdW1kYzJtYQARABCAAACqADibcQN1cm46YzJwYTphMDJlMDIyZi03MjJlLTRiNmUtYjMxMi1mYzllZjY2MjZmNDUAAAADl2p1bWIAAAApanVtZGMyYXMAEQAQgAAAqgA4m3EDYzJwYS5hc3NlcnRpb25zAAAAALxqdW1iAAAARGp1bWRjYm9yABEAEIAAAKoAOJtxE2MycGEuaW5ncmVkaWVudC52MwAAAAAYYzJzaFAEvsrtscEGotkkki4WE5kAAABwY2JvcqNpZGM6Zm9ybWF0bWltYWdlL3N2Zyt4bWxqaW5zdGFuY2VJRHgseG1wOmlpZDo5YjUyMTJhOS1jNWE2LTQzYTUtOWU3NS01YTM0ODlkMWM4ZWZscmVsYXRpb25zaGlwaHBhcmVudE9mAAAB4mp1bWIAAABBanVtZGNib3IAEQAQgAAAqgA4m3ETYzJwYS5hY3Rpb25zLnYyAAAAABhjMnNokSVu1ayP1UXhxcM6ea2w7gAAAZljYm9yomdhY3Rpb25zgqJmYWN0aW9ua2MycGEub3BlbmVkanBhcmFtZXRlcnOha2luZ3JlZGllbnRzgaJjdXJseC1zZWxmI2p1bWJmPWMycGEuYXNzZXJ0aW9ucy9jMnBhLmluZ3JlZGllbnQudjNkaGFzaFggvrZxMwI42UtXJ9S2LVScTEe6z1EEx+9awTzWUkFzKKOkZmFjdGlvbngdY29tLmFudGhyb3BpYy5jbGF1ZGUucHJvdmlkZWRqcGFyYW1ldGVyc6F4H2NvbS5hbnRocm9waWMub3JpZ2luLWNvbmZpZGVuY2VndW5rbm93bmtkZXNjcmlwdGlvbnhmQ2xhdWRlIHByb3ZpZGVkIHRoaXMgZmlsZSBhdCB0aGUgcmVxdWVzdCBvZiBhIHVzZXIgYW5kIG1heSBoYXZlIGNyZWF0ZWQgb3IgbW9kaWZpZWQgdGhlIGZpbGUgY29udGVudHMubXNvZnR3YXJlQWdlbnShZG5hbWVmQ2xhdWRlcmFsbEFjdGlvbnNJbmNsdWRlZPUAAADIanVtYgAAAEBqdW1kY2JvcgARABCAAACqADibcRNjMnBhLmhhc2guZGF0YQAAAAAYYzJzaM4xPO9W6qdI879XEakQFEgAAACAY2JvcqVjYWxnZnNoYTI1NmNwYWRNAAAAAAAAAAAAAAAAAGRoYXNoWCBKdRfj3oqk83mcQAm7ddS2hnswz1+Tx01HCIsVC2+vomRuYW1lbmp1bWJmIG1hbmlmZXN0amV4Y2x1c2lvbnOBomVzdGFydBiiZmxlbmd0aBkeBAAAAj5qdW1iAAAAJ2p1bWRjMmNsABEAEIAAAKoAOJtxA2MycGEuY2xhaW0udjIAAAACD2Nib3KlY2FsZ2ZzaGEyNTZpc2lnbmF0dXJleE1zZWxmI2p1bWJmPS9jMnBhL3VybjpjMnBhOmEwMmUwMjJmLTcyMmUtNGI2ZS1iMzEyLWZjOWVmNjYyNmY0NS9jMnBhLnNpZ25hdHVyZWppbnN0YW5jZUlEeCx4bXA6aWlkOjk2NDBiODQyLWJjMTItNGM0YS1iMTI1LTBhYzRmNjk5ZWJjN3JjcmVhdGVkX2Fzc2VydGlvbnODomN1cmx4LXNlbGYjanVtYmY9YzJwYS5hc3NlcnRpb25zL2MycGEuaW5ncmVkaWVudC52M2RoYXNoWCC+tnEzAjjZS1cn1LYtVJxMR7rPUQTH71rBPNZSQXMoo6JjdXJseCpzZWxmI2p1bWJmPWMycGEuYXNzZXJ0aW9ucy9jMnBhLmFjdGlvbnMudjJkaGFzaFggOMh39Q/h0svLXRPRdZxI16QVHgWEjI/HYap6hubVgWSiY3VybHgpc2VsZiNqdW1iZj1jMnBhLmFzc2VydGlvbnMvYzJwYS5oYXNoLmRhdGFkaGFzaFgg28j/axQcqCy5mwuUh9UyB+P0OiP1LwfLdQObY3DepHh0Y2xhaW1fZ2VuZXJhdG9yX2luZm+jZG5hbWVvQW50aHJvcGljIEZpbGVzZ3ZlcnNpb25lMS4wLjBrc3BlY1ZlcnNpb25lMi40LjAAABA4anVtYgAAAChqdW1kYzJjcwARABCAAACqADibcQNjMnBhLnNpZ25hdHVyZQAAABAIY2JvctKEWQISogEmGCFZAgowggIGMIIBjaADAgECAhRA5aAK7sI50L64g/oGQgU9Z1UTADAKBggqhkjOPQQDAzBJMRcwFQYDVQQKEw5BbnRocm9waWMsIFBCQzEuMCwGA1UEAxMlQW50aHJvcGljIENvbnRlbnQgQ3JlZGVudGlhbHMgUm9vdCBDQTAeFw0yNjA4MDcxODQzNTZaFw0yODA4MDYxOTQzNTZaMEQxFzAVBgNVBAoTDkFudGhyb3BpYywgUEJDMSkwJwYDVQQDEyBBbnRocm9waWMgQ2xhdWRlIENvbnRlbnQgU2lnbmluZzBZMBMGByqGSM49AgEGCCqGSM49AwEHA0IABJh6CmvLUBgFFNU0vUKlOVtE6djd17L5SuwX0LemFisBM3dkd/3cyjxFA3Qo5S46fX0/ihY0VZ7mfb9KF703t5OjWDBWMA4GA1UdDwEB/wQEAwIHgDAVBgNVHSUEDjAMBgorBgEEAYPoXgIBMAwGA1UdEwEB/wQCMAAwHwYDVR0jBBgwFoAUzlHiBIFOZFsj+OPEz5o+nMHXXMIwCgYIKoZIzj0EAwMDZwAwZAIwMXMdFJ4BetLLVY7ORuE9noqbbAZOZn/aArXyTwFAZfKrPzxF2vPoJNf1+UCdg1XGAjBwX1zd9WGqYkqmL5SFqw1QySjr1zJfpJM9+1rdDwSPLMOPOjKuiXjoU/pUUeG9RwmhY3BhZFkNngAAAAAAAAAAAAAAAAAAAAAAAAAAAAAAAAAAAAAAAAAAAAAAAAAAAAAAAAAAAAAAAAAAAAAAAAAAAAAAAAAAAAAAAAAAAAAAAAAAAAAAAAAAAAAAAAAAAAAAAAAAAAAAAAAAAAAAAAAAAAAAAAAAAAAAAAAAAAAAAAAAAAAAAAAAAAAAAAAAAAAAAAAAAAAAAAAAAAAAAAAAAAAAAAAAAAAAAAAAAAAAAAAAAAAAAAAAAAAAAAAAAAAAAAAAAAAAAAAAAAAAAAAAAAAAAAAAAAAAAAAAAAAAAAAAAAAAAAAAAAAAAAAAAAAAAAAAAAAAAAAAAAAAAAAAAAAAAAAAAAAAAAAAAAAAAAAAAAAAAAAAAAAAAAAAAAAAAAAAAAAAAAAAAAAAAAAAAAAAAAAAAAAAAAAAAAAAAAAAAAAAAAAAAAAAAAAAAAAAAAAAAAAAAAAAAAAAAAAAAAAAAAAAAAAAAAAAAAAAAAAAAAAAAAAAAAAAAAAAAAAAAAAAAAAAAAAAAAAAAAAAAAAAAAAAAAAAAAAAAAAAAAAAAAAAAAAAAAAAAAAAAAAAAAAAAAAAAAAAAAAAAAAAAAAAAAAAAAAAAAAAAAAAAAAAAAAAAAAAAAAAAAAAAAAAAAAAAAAAAAAAAAAAAAAAAAAAAAAAAAAAAAAAAAAAAAAAAAAAAAAAAAAAAAAAAAAAAAAAAAAAAAAAAAAAAAAAAAAAAAAAAAAAAAAAAAAAAAAAAAAAAAAAAAAAAAAAAAAAAAAAAAAAAAAAAAAAAAAAAAAAAAAAAAAAAAAAAAAAAAAAAAAAAAAAAAAAAAAAAAAAAAAAAAAAAAAAAAAAAAAAAAAAAAAAAAAAAAAAAAAAAAAAAAAAAAAAAAAAAAAAAAAAAAAAAAAAAAAAAAAAAAAAAAAAAAAAAAAAAAAAAAAAAAAAAAAAAAAAAAAAAAAAAAAAAAAAAAAAAAAAAAAAAAAAAAAAAAAAAAAAAAAAAAAAAAAAAAAAAAAAAAAAAAAAAAAAAAAAAAAAAAAAAAAAAAAAAAAAAAAAAAAAAAAAAAAAAAAAAAAAAAAAAAAAAAAAAAAAAAAAAAAAAAAAAAAAAAAAAAAAAAAAAAAAAAAAAAAAAAAAAAAAAAAAAAAAAAAAAAAAAAAAAAAAAAAAAAAAAAAAAAAAAAAAAAAAAAAAAAAAAAAAAAAAAAAAAAAAAAAAAAAAAAAAAAAAAAAAAAAAAAAAAAAAAAAAAAAAAAAAAAAAAAAAAAAAAAAAAAAAAAAAAAAAAAAAAAAAAAAAAAAAAAAAAAAAAAAAAAAAAAAAAAAAAAAAAAAAAAAAAAAAAAAAAAAAAAAAAAAAAAAAAAAAAAAAAAAAAAAAAAAAAAAAAAAAAAAAAAAAAAAAAAAAAAAAAAAAAAAAAAAAAAAAAAAAAAAAAAAAAAAAAAAAAAAAAAAAAAAAAAAAAAAAAAAAAAAAAAAAAAAAAAAAAAAAAAAAAAAAAAAAAAAAAAAAAAAAAAAAAAAAAAAAAAAAAAAAAAAAAAAAAAAAAAAAAAAAAAAAAAAAAAAAAAAAAAAAAAAAAAAAAAAAAAAAAAAAAAAAAAAAAAAAAAAAAAAAAAAAAAAAAAAAAAAAAAAAAAAAAAAAAAAAAAAAAAAAAAAAAAAAAAAAAAAAAAAAAAAAAAAAAAAAAAAAAAAAAAAAAAAAAAAAAAAAAAAAAAAAAAAAAAAAAAAAAAAAAAAAAAAAAAAAAAAAAAAAAAAAAAAAAAAAAAAAAAAAAAAAAAAAAAAAAAAAAAAAAAAAAAAAAAAAAAAAAAAAAAAAAAAAAAAAAAAAAAAAAAAAAAAAAAAAAAAAAAAAAAAAAAAAAAAAAAAAAAAAAAAAAAAAAAAAAAAAAAAAAAAAAAAAAAAAAAAAAAAAAAAAAAAAAAAAAAAAAAAAAAAAAAAAAAAAAAAAAAAAAAAAAAAAAAAAAAAAAAAAAAAAAAAAAAAAAAAAAAAAAAAAAAAAAAAAAAAAAAAAAAAAAAAAAAAAAAAAAAAAAAAAAAAAAAAAAAAAAAAAAAAAAAAAAAAAAAAAAAAAAAAAAAAAAAAAAAAAAAAAAAAAAAAAAAAAAAAAAAAAAAAAAAAAAAAAAAAAAAAAAAAAAAAAAAAAAAAAAAAAAAAAAAAAAAAAAAAAAAAAAAAAAAAAAAAAAAAAAAAAAAAAAAAAAAAAAAAAAAAAAAAAAAAAAAAAAAAAAAAAAAAAAAAAAAAAAAAAAAAAAAAAAAAAAAAAAAAAAAAAAAAAAAAAAAAAAAAAAAAAAAAAAAAAAAAAAAAAAAAAAAAAAAAAAAAAAAAAAAAAAAAAAAAAAAAAAAAAAAAAAAAAAAAAAAAAAAAAAAAAAAAAAAAAAAAAAAAAAAAAAAAAAAAAAAAAAAAAAAAAAAAAAAAAAAAAAAAAAAAAAAAAAAAAAAAAAAAAAAAAAAAAAAAAAAAAAAAAAAAAAAAAAAAAAAAAAAAAAAAAAAAAAAAAAAAAAAAAAAAAAAAAAAAAAAAAAAAAAAAAAAAAAAAAAAAAAAAAAAAAAAAAAAAAAAAAAAAAAAAAAAAAAAAAAAAAAAAAAAAAAAAAAAAAAAAAAAAAAAAAAAAAAAAAAAAAAAAAAAAAAAAAAAAAAAAAAAAAAAAAAAAAAAAAAAAAAAAAAAAAAAAAAAAAAAAAAAAAAAAAAAAAAAAAAAAAAAAAAAAAAAAAAAAAAAAAAAAAAAAAAAAAAAAAAAAAAAAAAAAAAAAAAAAAAAAAAAAAAAAAAAAAAAAAAAAAAAAAAAAAAAAAAAAAAAAAAAAAAAAAAAAAAAAAAAAAAAAAAAAAAAAAAAAAAAAAAAAAAAAAAAAAAAAAAAAAAAAAAAAAAAAAAAAAAAAAAAAAAAAAAAAAAAAAAAAAAAAAAAAAAAAAAAAAAAAAAAAAAAAAAAAAAAAAAAAAAAAAAAAAAAAAAAAAAAAAAAAAAAAAAAAAAAAAAAAAAAAAAAAAAAAAAAAAAAAAAAAAAAAAAAAAAAAAAAAAAAAAAAAAAAAAAAAAAAAAAAAAAAAAAAAAAAAAAAAAAAAAAAAAAAAAAAAAAAAAAAAAAAAAAAAAAAAAAAAAAAAAAAAAAAAAAAAAAAAAAAAAAAAAAAAAAAAAAAAAAAAAAAAAAAAAAAAAAAAAAAAAAAAAAAAAAAAAAAAAAAAAAAAAAAAAAAAAAAAAAAAAAAAAAAAAAAAAAAAAAAAAAAAAAAAAAAAAAAAAAAAAAAAAAAAAAAAAAAAAAAAAAAAAAAAAAAAAAAAAAAAAAAAAAAAAAAAAAAAAAAAAAAAAAAAAAAAAAAAAAAAAAAAAAAAAAAAAAAAAAAAAAAAAAAAAAAAAAAAAAAAAAAAAAAAAAAAAAAAAAAAAAAAAAAAAAAAAAAAAAAAAAAAAAAAAAAAAAAAAAAAAAAAAAAAAAAAAAAAAAAAAAAAAAAAAAAAAAAAAAAAAAAAAAAAAAAAAAAAAAAAAAAAAAAAAAAAAAAAAAAAAAAAAAAAAAAAAAAAAAAAAAAAAAAAAAAAAAAAAAAAAAAAAAAAAAAAAAAAAAAAAAAAAAAAAAAAAAAAAAAAAAAAAAAAAAAAAAAAAAAAAAAAAAAAAAAAAAAAAAAAAAAAAAAAAAAAAAAAAAAAAAAAAAAAAAAAAAAAAAAAAAAAAAAAAAAAAAAAAAAAAAAAAAAAAAAAAAAAAAAAAAAAAAAAAAAAAAAAAAAAAAAAAAAAAAAAAAAAAAAAAAAAAAAAAAAAAAAAAAAAAAAAAAAAAAAAAAAAAAAAAAAAAAAAAAAAAAAAAAAAAAAAAAAAAAAAAAAAAAAAAAAAAAAAAAAAAAAAAAAAAAAAAAAAAAAAAAAAAAAAAAAAAAAAAAAAAAAAAAAAAAAAAAAAAAAAAAAAAAAAAAAAAAAAAAAAAAAAAAAAAAAAAAAAAAAAAAAAAAAAAAAAAAAAAAAAAAAAAAAAAAAAAAAAAAAAAAAAAAAAAAAAAAAAAAAAAAAAAAAAAAAAAAAAAAAAAAAAAAAAAAAAAAAAAAAAAAAAAAAAAAAAAAAAAAAAAAAAAAAAAAAAAAAAAAAAAAAAAAAAAAAAAAAAAAAAAAAAAAAAAAAAAAAAAAAAAAAAAAAAAAAAAAAAAAAAAAAAAAAAAAAAAAAAAAAAAAAAAAAAAAAAAAAAAAAAAAAAAAAAAAAAAAAAAAAAAAAAAAAAAAAAAAAAAAAAAAAAAAAAAAAAAAAAAAAAAAAAAAAAAAAAAAAAAAAAAAAAAAAAAAAAAAAAAAAAAAAAAAAAAAAAAAAAAAAAAAAAAAAAAAAAAAAAAAAAAAAAAAAAAAAAAAAAAAAAAAAAAAAAAAAAAAAAAAAAAAAAAAAAAAAAAAAAAAAAAAAAAAAAAAAAAAAAAAAAAAAAAAAAAAAAAAAAAAAAAAAAAAAAAAAAAAAAAAAAAAAAAAAAAAAAAAAAAAAAAAAAAAAAAAAAAAAAAAAAAAAAAAAAAAAAAAAAAAAAAAAAAAAAAAAAAAAAAAAAAAAAAAAAAAAAAAAAAAAAAAAAAAAAAAAAAAAAAAAAAAAAAAAAAAAAAAAAAAAAAAAAAAAAAAAAAAAAAAAAAAAAAAAAAAAAAAAAAAAAAAAAAAAAAAAAAAAAAAAAAAAAAAAAAAAAAAAAAAAAAAPZYQLyVinTuKqREdfsi0hZ+fRkPONnb9kUJXQ9bVgTbEHpjOLxyDht3YAgSkHL4ODpRnrX8Ci6j1tCuoQTG4hg/8Mw=</c2pa:manifest></metadata><defs><pattern id="dots" width="20" height="20" patternUnits="userSpaceOnUse"><circle cx="2" cy="2" r="1.2" fill="#D6D1EC"/></pattern></defs><rect x="24" y="52" width="150" height="190" rx="16" fill="#FFFFFF" stroke="#E3E0F1" stroke-width="1.5"/><rect x="40" y="70" width="40" height="18" rx="6" fill="#FFEDD5"/><rect x="48" y="77" width="24" height="5" rx="2.5" fill="#C2410C"/><rect x="40" y="106" width="118" height="7" rx="3.5" fill="#E3E0F1"/><rect x="40" y="124" width="96" height="7" rx="3.5" fill="#E3E0F1"/><rect x="40" y="142" width="74" height="7" rx="3.5" fill="#E3E0F1"/><rect x="40" y="160" width="118" height="7" rx="3.5" fill="#E3E0F1"/><rect x="40" y="178" width="96" height="7" rx="3.5" fill="#E3E0F1"/><rect x="40" y="196" width="74" height="7" rx="3.5" fill="#E3E0F1"/><rect x="24" y="262" width="150" height="130" rx="16" fill="#FFFFFF" stroke="#E3E0F1" stroke-width="1.5"/><rect x="44" y="286" width="100" height="78" rx="12" fill="#F3F2FB" stroke="#6D5BD0" stroke-width="1.5"/><rect x="36" y="276" width="100" height="78" rx="12" fill="#FFFFFF" stroke="#6D5BD0" stroke-width="1.5"/><rect x="28" y="266" width="100" height="78" rx="12" fill="#FFFFFF" stroke="#6D5BD0" stroke-width="1.8"/><rect x="42" y="282" width="52" height="8" rx="4.0" fill="#1A1533" opacity="0.8"/><rect x="42" y="300" width="70" height="6" rx="3.0" fill="#E3E0F1"/><rect x="42" y="314" width="48" height="6" rx="3.0" fill="#E3E0F1"/><path d="M190 150C220 150 226 210 250 210" fill="none" stroke="#6D5BD0" stroke-width="3" stroke-linecap="round" stroke-linejoin="round"/><path d="M242 202L252 210L242 218" fill="none" stroke="#6D5BD0" stroke-width="3" stroke-linecap="round" stroke-linejoin="round"/><path d="M190 326C220 326 226 230 250 230" fill="none" stroke="#6D5BD0" stroke-width="3" stroke-linecap="round" stroke-linejoin="round"/><path d="M242 222L252 230L242 238" fill="none" stroke="#6D5BD0" stroke-width="3" stroke-linecap="round" stroke-linejoin="round"/><rect x="262" y="40" width="354" height="350" rx="22" fill="#FFFFFF" stroke="#E3E0F1" stroke-width="1.5"/><rect x="263" y="41" width="352" height="348" rx="0" fill="#FBFAFE"/><rect x="263" y="41" width="352" height="348" rx="0" fill="url(#dots)"/><rect x="280" y="56" width="98" height="26" rx="13" fill="#F3F2FB"/><path d="M298 69l3-6 3 6 6 3-6 3-3 6-3-6-6-3z" fill="none" stroke="#6D5BD0" stroke-width="1.8" stroke-linecap="round" stroke-linejoin="round"/><rect x="314" y="66" width="52" height="6" rx="3.0" fill="#6D5BD0"/><path d="M366 140L377.0 140Q382.0 140 382.0 135.0L382.0 135.0Q382.0 130 387.0 130L398 130" fill="none" stroke="#8E88B5" stroke-width="2" stroke-linecap="round" stroke-linejoin="round"/><path d="M390 125L398 130L390 135" fill="none" stroke="#8E88B5" stroke-width="2" stroke-linecap="round" stroke-linejoin="round"/><path d="M498 130L499.0 130Q509.0 130 509.0 140.0L509.0 140.0Q509.0 150 519.0 150L520 150" fill="none" stroke="#8E88B5" stroke-width="2" stroke-linecap="round" stroke-linejoin="round"/><path d="M512 145L520 150L512 155" fill="none" stroke="#8E88B5" stroke-width="2" stroke-linecap="round" stroke-linejoin="round"/><path d="M310 176L310 236" fill="none" stroke="#8E88B5" stroke-width="2" stroke-linecap="round" stroke-linejoin="round"/><path d="M305 228L310 236L315 228" fill="none" stroke="#8E88B5" stroke-width="2" stroke-linecap="round" stroke-linejoin="round"/><rect x="290" y="106" width="76" height="70" rx="13" fill="#FFFFFF" stroke="#B8B3D0" stroke-width="1.8" stroke-dasharray="6 5"/><rect x="304" y="120" width="34" height="5" rx="2.5" fill="#C9C3E6"/><rect x="304" y="134" width="38.0" height="9" rx="4.5" fill="#1A1533"/><rect x="304" y="154" width="48" height="6" rx="3.0" fill="#E3E0F1"/><circle cx="308" cy="160" r="4" fill="#B8B3D0"/><rect x="318" y="157" width="27.36" height="6" rx="3.0" fill="#B8B3D0" opacity="0.55"/><rect x="398" y="98" width="100" height="70" rx="13" fill="#FFFFFF" stroke="#B8B3D0" stroke-width="1.8" stroke-dasharray="6 5"/><rect x="412" y="112" width="34" height="5" rx="2.5" fill="#C9C3E6"/><rect x="412" y="126" width="50.0" height="9" rx="4.5" fill="#1A1533"/><rect x="412" y="146" width="72" height="6" rx="3.0" fill="#E3E0F1"/><circle cx="416" cy="152" r="4" fill="#B8B3D0"/><rect x="426" y="149" width="36.0" height="6" rx="3.0" fill="#B8B3D0" opacity="0.55"/><rect x="520" y="116" width="80" height="70" rx="13" fill="#FFFFFF" stroke="#B8B3D0" stroke-width="1.8" stroke-dasharray="6 5"/><rect x="534" y="130" width="34" height="5" rx="2.5" fill="#C9C3E6"/><rect x="534" y="144" width="40.0" height="9" rx="4.5" fill="#1A1533"/><rect x="534" y="164" width="52" height="6" rx="3.0" fill="#E3E0F1"/><circle cx="538" cy="170" r="4" fill="#B8B3D0"/><rect x="548" y="167" width="28.799999999999997" height="6" rx="3.0" fill="#B8B3D0" opacity="0.55"/><rect x="290" y="236" width="100" height="70" rx="13" fill="#FFFFFF" stroke="#6D5BD0" stroke-width="1.8"/><rect x="304" y="250" width="34" height="5" rx="2.5" fill="#C9C3E6"/><rect x="304" y="264" width="50.0" height="9" rx="4.5" fill="#1A1533"/><rect x="304" y="284" width="72" height="6" rx="3.0" fill="#E3E0F1"/><circle cx="308" cy="290" r="4" fill="#6D5BD0"/><rect x="318" y="287" width="36.0" height="6" rx="3.0" fill="#6D5BD0" opacity="0.55"/><rect x="418" y="252" width="100" height="70" rx="13" fill="#FFFFFF" stroke="#6D5BD0" stroke-width="1.8"/><rect x="432" y="266" width="34" height="5" rx="2.5" fill="#C9C3E6"/><rect x="432" y="280" width="50.0" height="9" rx="4.5" fill="#1A1533"/><rect x="432" y="300" width="72" height="6" rx="3.0" fill="#E3E0F1"/><circle cx="436" cy="306" r="4" fill="#6D5BD0"/><rect x="446" y="303" width="36.0" height="6" rx="3.0" fill="#6D5BD0" opacity="0.55"/><path d="M390 270L396.0 270Q404.0 270 404.0 278.0L404.0 278.0Q404.0 286 412.0 286L418 286" fill="none" stroke="#8E88B5" stroke-width="2" stroke-linecap="round" stroke-linejoin="round"/><path d="M410 281L418 286L410 291" fill="none" stroke="#8E88B5" stroke-width="2" stroke-linecap="round" stroke-linejoin="round"/><rect x="540" y="340" width="60" height="30" rx="15" fill="#FFFFFF" stroke="#6D5BD0" stroke-width="1.8"/><rect x="552" y="351" width="36" height="7" rx="3.5" fill="#6D5BD0"/></svg>